<?xml version="1.0" encoding="utf-8"?>
<!-- Generator: Adobe Illustrator 16.0.0, SVG Export Plug-In . SVG Version: 6.00 Build 0)  -->
<!DOCTYPE svg PUBLIC "-//W3C//DTD SVG 1.1//EN" "http://www.w3.org/Graphics/SVG/1.1/DTD/svg11.dtd">
<svg version="1.1" id="Layer_1" xmlns="http://www.w3.org/2000/svg" xmlns:xlink="http://www.w3.org/1999/xlink" x="0px" y="0px"
	 width="34px" height="34px" viewBox="0 0 34 34" enable-background="new 0 0 34 34" xml:space="preserve">
<path display="none" fill="#393839" d="M21.087,11.858h-2.502c-0.297,0-0.626,0.39-0.626,0.907v1.808h3.129l-0.473,2.576h-2.656
	v7.733h-2.953v-7.733h-2.678v-2.576h2.678v-1.516c0-2.175,1.51-3.94,3.579-3.94h2.502V11.858z M17.145,0.355
	C7.952,0.355,0.5,7.808,0.5,17.001c0,9.192,7.452,16.643,16.645,16.643c9.191,0,16.644-7.45,16.644-16.643
	C33.788,7.808,26.336,0.355,17.145,0.355"/>
<path fill="#393839" d="M19.891,16.998c0-0.616-0.201-1.188-0.537-1.655c-0.517-0.715-1.357-1.185-2.308-1.185
	c-0.946,0-1.787,0.466-2.304,1.185c-0.338,0.467-0.536,1.039-0.539,1.655c0,1.57,1.277,2.844,2.843,2.844
	C18.613,19.842,19.891,18.568,19.891,16.998 M20.527,13.529l2.728-0.008v-2.737h-0.356l-2.383,0.009L20.527,13.529z M23.548,21.955
	v-6.612h-2.41c0.207,0.512,0.327,1.071,0.327,1.655c0,2.437-1.979,4.418-4.419,4.418c-2.435,0-4.415-1.981-4.415-4.418
	c0-0.584,0.117-1.144,0.324-1.655h-2.41v6.612c0,0.856,0.692,1.547,1.547,1.547h9.909C22.855,23.502,23.548,22.812,23.548,21.955
	 M25.123,21.955c0,1.723-1.398,3.121-3.122,3.121h-9.909c-1.721,0-3.12-1.398-3.12-3.121v-9.907c0-1.725,1.399-3.123,3.12-3.123
	h9.909c1.724,0,3.122,1.398,3.122,3.123v3.295V21.955z M33.692,17c0-9.191-7.452-16.645-16.645-16.645
	C7.856,0.355,0.404,7.809,0.404,17s7.452,16.645,16.644,16.645C26.24,33.645,33.692,26.191,33.692,17"/>
<path display="none" fill="#393839" d="M23.722,13.991c0.007,0.141,0.009,0.284,0.009,0.423c0,4.334-3.296,9.329-9.325,9.329
	c-1.853,0-3.575-0.541-5.024-1.475c0.254,0.031,0.516,0.043,0.782,0.043c1.536,0,2.949-0.521,4.069-1.401
	c-1.433-0.028-2.644-0.976-3.061-2.275c0.199,0.036,0.404,0.058,0.615,0.058c0.298,0,0.59-0.039,0.863-0.114
	c-1.499-0.302-2.631-1.626-2.631-3.214v-0.04c0.442,0.244,0.949,0.393,1.486,0.411c-0.881-0.591-1.458-1.593-1.458-2.731
	c0-0.6,0.161-1.166,0.444-1.649c1.618,1.983,4.031,3.287,6.756,3.429c-0.057-0.241-0.084-0.49-0.084-0.749
	c0-1.81,1.466-3.279,3.278-3.279c0.941,0,1.795,0.399,2.393,1.038c0.747-0.15,1.447-0.42,2.08-0.796
	c-0.244,0.764-0.763,1.407-1.441,1.813c0.664-0.081,1.296-0.256,1.884-0.517C24.919,12.95,24.362,13.529,23.722,13.991
	 M16.952,0.355c-9.192,0-16.645,7.452-16.645,16.646c0,9.192,7.452,16.643,16.645,16.643c9.191,0,16.644-7.45,16.644-16.643
	C33.596,7.808,26.144,0.355,16.952,0.355"/>
<path display="none" fill="#393839" d="M14.281,20.099c2.119-1.101,4.222-2.191,6.344-3.29c-2.129-1.112-4.23-2.206-6.344-3.311
	V20.099z M26.834,16.999c0,1.558-0.001,3.207-0.349,4.719c-0.244,1.061-1.112,1.844-2.157,1.962
	c-2.475,0.274-4.979,0.276-7.473,0.274c-2.494,0.002-4.998,0-7.474-0.274c-1.045-0.118-1.913-0.901-2.156-1.962
	c-0.348-1.512-0.348-3.161-0.348-4.719c0-1.556,0.004-3.205,0.351-4.717c0.244-1.061,1.112-1.845,2.156-1.961
	c2.476-0.275,4.98-0.276,7.475-0.275c2.492-0.001,4.998,0,7.473,0.275c1.045,0.116,1.913,0.9,2.157,1.961
	C26.837,13.794,26.834,15.443,26.834,16.999 M33.5,16.999c0-9.191-7.452-16.644-16.645-16.644c-9.191,0-16.644,7.452-16.644,16.644
	c0,9.192,7.452,16.646,16.644,16.646C26.048,33.645,33.5,26.191,33.5,16.999"/>
</svg>
