<?xml version="1.0" encoding="utf-8"?>
<!-- Generator: Adobe Illustrator 16.0.0, SVG Export Plug-In . SVG Version: 6.00 Build 0)  -->
<!DOCTYPE svg PUBLIC "-//W3C//DTD SVG 1.1//EN" "http://www.w3.org/Graphics/SVG/1.1/DTD/svg11.dtd">
<svg version="1.1" id="Layer_1" xmlns="http://www.w3.org/2000/svg" xmlns:xlink="http://www.w3.org/1999/xlink" x="0px" y="0px"
	 width="59px" height="49px" viewBox="0 0 59 49" enable-background="new 0 0 59 49" xml:space="preserve">
<path display="none" fill="#FFFFFF" d="M1.529,22.751C0.843,24.396,0.5,26.181,0.5,28.102v16.258c0,3.019,1.509,4.528,4.528,4.528
	h15.229c3.018,0,4.528-1.51,4.528-4.528V26.455c0-2.881-1.51-4.321-4.528-4.321h-4.322l6.174-18.317
	c0.686-2.469-0.068-3.703-2.264-3.703h-5.968c-1.921,0-3.293,1.028-4.116,3.087L1.529,22.751z M35.692,22.751
	c-0.687,1.646-1.029,3.43-1.029,5.351v16.258c0,3.019,1.509,4.528,4.527,4.528h15.436c2.881,0,4.321-1.51,4.321-4.528V26.455
	c0-2.881-1.44-4.321-4.321-4.321h-4.527l6.174-18.317c0.959-2.469,0.205-3.703-2.264-3.703h-5.763c-2.058,0-3.499,1.028-4.321,3.087
	L35.692,22.751z"/>
<path fill="#FFFFFF" d="M57.471,26.249c0.686-1.646,1.029-3.43,1.029-5.351V4.641c0-3.019-1.51-4.528-4.528-4.528H38.743
	c-3.018,0-4.527,1.51-4.527,4.528v17.904c0,2.881,1.51,4.321,4.527,4.321h4.322l-6.174,18.317c-0.686,2.469,0.068,3.704,2.264,3.704
	h5.969c1.921,0,3.293-1.029,4.115-3.087L57.471,26.249z M23.308,26.249c0.686-1.646,1.029-3.43,1.029-5.351V4.641
	c0-3.019-1.51-4.528-4.528-4.528H4.374c-2.881,0-4.32,1.51-4.32,4.528v17.904c0,2.881,1.439,4.321,4.32,4.321h4.528L2.728,45.184
	c-0.96,2.469-0.206,3.704,2.264,3.704h5.763c2.058,0,3.499-1.029,4.321-3.087L23.308,26.249z"/>
</svg>
