<?xml version="1.0" encoding="utf-8"?>
<!-- Generator: Adobe Illustrator 16.0.0, SVG Export Plug-In . SVG Version: 6.00 Build 0)  -->
<!DOCTYPE svg PUBLIC "-//W3C//DTD SVG 1.1//EN" "http://www.w3.org/Graphics/SVG/1.1/DTD/svg11.dtd">
<svg version="1.1" id="Layer_1" xmlns="http://www.w3.org/2000/svg" xmlns:xlink="http://www.w3.org/1999/xlink" x="0px" y="0px"
	 width="204px" height="62px" viewBox="0 0 204 62" enable-background="new 0 0 204 62" xml:space="preserve">
<path fill="#393839" d="M23.366,25.333c2.447,0,4.188-0.394,5.224-1.181c1.036-0.785,1.555-2.04,1.555-3.763
	c0-1.797-0.525-3.084-1.573-3.856c-1.049-0.774-2.759-1.161-5.131-1.161h-4.569v9.961H23.366z M23.516,11.738
	c3.645,0,6.348,0.699,8.108,2.099c1.76,1.396,2.64,3.582,2.64,6.553c0,4.594-2.359,7.265-7.078,8.014l7.078,8.689
	c0.175,0.199,0.218,0.411,0.131,0.636c-0.087,0.226-0.281,0.337-0.581,0.337h-2.845c-0.425,0-0.8-0.199-1.124-0.599l-6.891-8.539
	h-4.082v8.389c0,0.499-0.262,0.749-0.786,0.749H15.54c-0.525,0-0.787-0.25-0.787-0.749V12.487c0-0.499,0.262-0.749,0.787-0.749
	H23.516z"/>
<path fill="#393839" d="M43.437,26.38v8.053h11.197c0.499,0,0.749,0.236,0.749,0.712v2.133c0,0.525-0.25,0.788-0.749,0.788H40.141
	c-0.525,0-0.787-0.25-0.787-0.749v-24.83c0-0.499,0.249-0.749,0.749-0.749h14.38c0.524,0,0.787,0.25,0.787,0.749v2.135
	c0,0.499-0.263,0.749-0.787,0.749H43.437v7.489h10.635c0.475,0,0.712,0.263,0.712,0.788v1.947c0,0.523-0.237,0.785-0.712,0.785
	H43.437z"/>
<path fill="#393839" d="M60.548,12.487c0-0.498,0.237-0.748,0.712-0.748h2.621c0.524,0,0.787,0.25,0.787,0.748v24.829
	c0,0.499-0.263,0.749-0.787,0.749H61.26c-0.475,0-0.712-0.25-0.712-0.749V12.487z"/>
<path fill="#393839" d="M69.047,12.487c0-0.498,0.25-0.748,0.749-0.748h17.152c0.524,0,0.786,0.25,0.786,0.748v2.247
	c0,0.499-0.262,0.749-0.786,0.749H80.47v21.833c0,0.499-0.262,0.749-0.787,0.749H77.1c-0.5,0-0.749-0.25-0.749-0.749V15.483h-6.516
	c-0.525,0-0.787-0.25-0.787-0.749V12.487z"/>
<path fill="#393839" d="M95.971,26.38v8.053h11.197c0.499,0,0.749,0.236,0.749,0.712v2.133c0,0.525-0.25,0.788-0.749,0.788H92.676
	c-0.525,0-0.787-0.25-0.787-0.749v-24.83c0-0.499,0.249-0.749,0.749-0.749h14.38c0.524,0,0.787,0.25,0.787,0.749v2.135
	c0,0.499-0.263,0.749-0.787,0.749H95.971v7.489h10.635c0.475,0,0.712,0.263,0.712,0.788v1.947c0,0.523-0.237,0.785-0.712,0.785
	H95.971z"/>
<path fill="#393839" d="M121.434,25.333c2.447,0,4.188-0.394,5.224-1.181c1.036-0.785,1.555-2.04,1.555-3.763
	c0-1.797-0.525-3.084-1.573-3.856c-1.049-0.774-2.759-1.161-5.131-1.161h-4.569v9.961H121.434z M121.584,11.738
	c3.645,0,6.348,0.699,8.108,2.099c1.76,1.396,2.64,3.582,2.64,6.553c0,4.594-2.359,7.265-7.078,8.014l7.078,8.689
	c0.175,0.199,0.218,0.411,0.131,0.636c-0.087,0.226-0.281,0.337-0.581,0.337h-2.845c-0.425,0-0.8-0.199-1.124-0.599l-6.891-8.539
	h-4.082v8.389c0,0.499-0.262,0.749-0.786,0.749h-2.546c-0.525,0-0.787-0.25-0.787-0.749V12.487c0-0.499,0.262-0.749,0.787-0.749
	H121.584z"/>
<path fill="#393839" d="M150.604,28.141l-4.232-12.321h-0.074l-4.269,12.321H150.604z M147.983,11.738
	c0.299,0,0.505,0.058,0.618,0.17c0.112,0.111,0.218,0.306,0.318,0.579l9.1,24.755c0.1,0.225,0.094,0.418-0.018,0.579
	c-0.113,0.163-0.294,0.244-0.544,0.244h-2.808c-0.4,0-0.7-0.224-0.899-0.675l-2.06-5.654h-10.71l-2.097,5.654
	c-0.15,0.451-0.425,0.675-0.824,0.675h-2.846c-0.25,0-0.431-0.081-0.543-0.244c-0.112-0.161-0.131-0.354-0.057-0.579l9.101-24.755
	c0.099-0.273,0.212-0.468,0.337-0.579c0.124-0.112,0.337-0.17,0.636-0.17H147.983z"/>
<path fill="#393839" d="M156.707,12.487c0-0.498,0.25-0.748,0.749-0.748h17.152c0.524,0,0.786,0.25,0.786,0.748v2.247
	c0,0.499-0.262,0.749-0.786,0.749h-6.479v21.833c0,0.499-0.262,0.749-0.787,0.749h-2.584c-0.499,0-0.748-0.25-0.748-0.749V15.483
	h-6.516c-0.525,0-0.787-0.25-0.787-0.749V12.487z"/>
<path fill="#393839" d="M183.63,26.38v8.053h11.197c0.499,0,0.749,0.236,0.749,0.712v2.133c0,0.525-0.25,0.788-0.749,0.788h-14.492
	c-0.525,0-0.787-0.25-0.787-0.749v-24.83c0-0.499,0.249-0.749,0.749-0.749h14.38c0.524,0,0.787,0.25,0.787,0.749v2.135
	c0,0.499-0.263,0.749-0.787,0.749H183.63v7.489h10.635c0.475,0,0.712,0.263,0.712,0.788v1.947c0,0.523-0.237,0.785-0.712,0.785
	H183.63z"/>
<path fill="#393839" d="M199.693,34.169c0-0.474,0.25-0.711,0.749-0.711h2.809c0.499,0,0.749,0.237,0.749,0.711v3.185
	c0,0.474-0.237,0.712-0.712,0.712h-2.883c-0.474,0-0.712-0.238-0.712-0.712V34.169z"/>
<path fill="#EF3B54" d="M63.937,43.131H61.08c-0.454,0-0.611,0.253-0.714,0.619c-0.488,1.787-2.109,3.111-4.049,3.111H22.03
	c-0.544,0-1.077,0.221-1.461,0.605l-8.796,8.797v-7.336c0-1.14-0.927-2.066-2.066-2.066H8.332c-2.324,0-4.214-1.89-4.214-4.213
	V8.348c0-2.324,1.89-4.214,4.214-4.214h30.273c0.5,0,0.749-0.264,0.749-0.786v-2.62c0-0.475-0.249-0.712-0.749-0.712H8.332
	C3.738,0.016,0,3.753,0,8.348v34.287c0,4.382,3.341,7.968,7.669,8.31v8.07c0,1.208,0.719,2.286,1.826,2.744
	c0.343,0.148,0.727,0.225,1.143,0.225c0.794,0,1.54-0.309,2.1-0.869l10.148-10.148h33.446c4.217,0,7.704-3.152,8.248-7.225
	C64.61,43.449,64.475,43.131,63.937,43.131"/>
</svg>
