<?xml version="1.0" encoding="utf-8"?>
<!-- Generator: Adobe Illustrator 15.1.0, SVG Export Plug-In . SVG Version: 6.00 Build 0)  -->
<!DOCTYPE svg PUBLIC "-//W3C//DTD SVG 1.1//EN" "http://www.w3.org/Graphics/SVG/1.1/DTD/svg11.dtd">
<svg version="1.1" id="Layer_1" xmlns="http://www.w3.org/2000/svg" xmlns:xlink="http://www.w3.org/1999/xlink" x="0px" y="0px"
	 width="34px" height="34px" viewBox="0 0 34 34" enable-background="new 0 0 34 34" xml:space="preserve">
<path fill="#393839" d="M17.145,0.355C7.952,0.355,0.5,7.808,0.5,17.001c0,9.192,7.452,16.644,16.645,16.644
	c9.191,0,16.644-7.451,16.644-16.644C33.788,7.808,26.336,0.355,17.145,0.355z M10.719,24.908c-0.348,0-0.645-0.241-0.722-0.574
	l-0.741-3.213c-0.081-0.35,0.1-0.707,0.431-0.849l3.459-1.481c0.304-0.13,0.656-0.044,0.866,0.211l1.532,1.873
	c2.419-1.135,4.365-3.106,5.477-5.476l-1.874-1.532c-0.255-0.209-0.342-0.562-0.212-0.866l1.483-3.46
	c0.142-0.33,0.499-0.511,0.848-0.431l3.214,0.742c0.336,0.078,0.574,0.377,0.574,0.723C25.054,18.497,18.631,24.908,10.719,24.908z"
	/>
</svg>
