<?xml version="1.0" encoding="utf-8"?>
<!-- Generator: Adobe Illustrator 16.0.0, SVG Export Plug-In . SVG Version: 6.00 Build 0)  -->
<!DOCTYPE svg PUBLIC "-//W3C//DTD SVG 1.1//EN" "http://www.w3.org/Graphics/SVG/1.1/DTD/svg11.dtd">
<svg version="1.1" id="Layer_1" xmlns="http://www.w3.org/2000/svg" xmlns:xlink="http://www.w3.org/1999/xlink" x="0px" y="0px"
	 width="34px" height="34px" viewBox="0 0 34 34" enable-background="new 0 0 34 34" xml:space="preserve">
<path fill="#FFFFFF" d="M17,0.355c-9.193,0-16.645,7.453-16.645,16.646S7.808,33.645,17,33.645c9.191,0,16.644-7.451,16.644-16.644
	C33.644,7.809,26.191,0.355,17,0.355z M11.469,22.729c-0.164,0.143-0.373,0.221-0.589,0.221c-0.261,0-0.509-0.113-0.68-0.311
	l-4.621-5.327c-0.308-0.355-0.294-0.878,0.033-1.216l4.621-4.776c0.341-0.35,0.813-0.359,1.163-0.021
	c0.356,0.345,0.366,0.916,0.021,1.273l-3.939,4.182l4.082,4.706c0.158,0.182,0.235,0.414,0.218,0.653
	C11.76,22.353,11.65,22.571,11.469,22.729z M21.42,10.009l-7.213,14.766c-0.152,0.312-0.462,0.506-0.809,0.506
	c-0.138,0-0.271-0.031-0.395-0.092c-0.216-0.105-0.378-0.289-0.456-0.516c-0.078-0.228-0.063-0.472,0.042-0.688l7.213-14.767
	c0.211-0.431,0.774-0.624,1.203-0.414C21.452,9.023,21.638,9.563,21.42,10.009z M28.421,17.312L23.8,22.638
	c-0.172,0.197-0.419,0.311-0.68,0.311c-0.217,0-0.426-0.079-0.59-0.221c-0.182-0.157-0.291-0.376-0.308-0.616
	c-0.018-0.239,0.061-0.472,0.218-0.653l4.081-4.703l-4.048-4.183c-0.346-0.357-0.336-0.928,0.021-1.273
	c0.349-0.333,0.939-0.323,1.272,0.021l4.621,4.776C28.715,16.434,28.729,16.957,28.421,17.312z"/>
</svg>
