<?xml version="1.0" encoding="utf-8"?>
<!-- Generator: Adobe Illustrator 15.1.0, SVG Export Plug-In . SVG Version: 6.00 Build 0)  -->
<!DOCTYPE svg PUBLIC "-//W3C//DTD SVG 1.1//EN" "http://www.w3.org/Graphics/SVG/1.1/DTD/svg11.dtd">
<svg version="1.1" id="Layer_1" xmlns="http://www.w3.org/2000/svg" xmlns:xlink="http://www.w3.org/1999/xlink" x="0px" y="0px"
	 width="324px" height="195px" viewBox="0 0 324 195" enable-background="new 0 0 324 195" xml:space="preserve">
<path fill="#FFFFFF" d="M161.5,0.3c29.357,0,53.156,23.799,53.156,53.156s-23.799,53.156-53.156,53.156
	s-53.156-23.799-53.156-53.156S132.143,0.3,161.5,0.3z M218.94,110.342l-20.241-5.061c-24.891,17.903-55.063,13.908-74.398,0
	l-20.241,5.061c-16.227,4.057-27.609,18.635-27.609,35.361v30.771c0,10.065,8.159,18.226,18.225,18.226h133.65
	c10.064,0,18.225-8.16,18.225-18.226v-30.771C246.55,128.977,235.167,114.398,218.94,110.342z M266.8,119.775
	c19.571,0,35.438-15.866,35.438-35.438c0-19.571-15.866-35.438-35.438-35.438s-35.438,15.866-35.438,35.438
	C231.362,103.909,247.229,119.775,266.8,119.775z M56.2,119.775c19.571,0,35.438-15.866,35.438-35.438
	C91.638,64.766,75.771,48.9,56.2,48.9c-19.572,0-35.438,15.866-35.438,35.438C20.763,103.909,36.628,119.775,56.2,119.775z
	 M68.35,176.475v-30.771c0-8.379,2.325-16.303,6.431-23.084c-15.181,7.451-32.063,4.408-43.38-3.731l-13.494,3.374
	C7.089,124.965-0.5,134.686-0.5,145.836v20.514c0,6.711,5.439,12.15,12.149,12.15h56.786
	C68.381,177.826,68.353,177.15,68.35,176.475z M305.094,122.261l-13.494-3.374c-14.138,10.169-30.826,9.737-43.43,3.654
	c4.136,6.799,6.479,14.751,6.479,23.162v30.771c0,0.682-0.034,1.355-0.085,2.025h56.785c6.71,0,12.15-5.439,12.15-12.15v-20.514
	C323.5,134.686,315.911,124.965,305.094,122.261z"/>
</svg>
