<?xml version="1.0" encoding="utf-8"?>
<!-- Generator: Adobe Illustrator 16.0.0, SVG Export Plug-In . SVG Version: 6.00 Build 0)  -->
<!DOCTYPE svg PUBLIC "-//W3C//DTD SVG 1.1//EN" "http://www.w3.org/Graphics/SVG/1.1/DTD/svg11.dtd">
<svg version="1.1" id="Layer_1" xmlns="http://www.w3.org/2000/svg" xmlns:xlink="http://www.w3.org/1999/xlink" x="0px" y="0px"
	 width="34px" height="34px" viewBox="0 0 34 34" enable-background="new 0 0 34 34" xml:space="preserve">
<g id="Layer_1_1_">
	<path display="none" fill="#393839" d="M590.551-704.599H239.432c-41.662,0-87.851,54.751-87.851,127.317v253.747h439.106
		L524.355,37.934H151.581v1085.226h-414.436V37.934h-375.79v-361.468h375.79v-212.77c0-305.276,211.948-552.924,502.287-552.924
		h351.119V-704.599z M37.352-2318.902c-1290.112,0-2335.936,1045.959-2335.936,2336.073
		c0,1290.045,1045.823,2335.729,2335.936,2335.729c1289.84,0,2335.799-1045.686,2335.799-2335.729
		C2373.016-1272.943,1327.191-2318.902,37.352-2318.902"/>
	<path display="none" fill="#393839" d="M422.666,16.76c0-86.478-28.232-166.722-75.377-232.298
		C274.788-315.859,156.928-381.78,23.441-381.78c-132.733,0-250.801,65.372-323.298,166.242
		c-47.488,65.576-75.243,145.82-75.654,232.298c0,220.376,179.194,399.088,398.953,399.088
		C243.406,415.848,422.666,237.136,422.666,16.76 M512.021-470.107l382.777-1.098v-384.08h-50.023l-334.396,1.233L512.021-470.107z
		 M935.914,712.422v-927.96H597.816C626.869-143.656,643.59-65.197,643.59,16.76c0,342.074-277.664,620.012-620.148,620.012
		c-341.731,0-619.601-277.938-619.601-620.012c0-81.957,16.447-160.554,45.501-232.298h-338.239v927.96
		c0,120.054,97.1,217.084,217.087,217.084H718.83C838.746,929.506,935.914,832.752,935.914,712.422 M1156.977,712.422
		c0,241.755-196.256,438.009-438.146,438.009H-671.809c-241.482,0-437.805-196.254-437.805-438.009V-677.944
		c0-242.028,196.323-438.282,437.805-438.282H718.83c241.891,0,438.146,196.254,438.146,438.282v462.406V712.422L1156.977,712.422z
		 M2359.445,17.033c0-1289.838-1045.686-2335.936-2335.866-2335.936c-1289.84,0-2335.661,1046.097-2335.661,2335.936
		c0,1289.906,1045.821,2335.867,2335.796,2335.867C1313.76,2352.9,2359.445,1306.939,2359.445,17.033"/>
	<path display="none" fill="#393839" d="M-364.613,452.026C-67.216,297.436,227.919,144.488,525.727-9.759
		C226.959-165.792-67.903-319.355-364.613-474.425V452.026L-364.613,452.026z M1397.084,16.895
		c0,218.593-0.135,450.07-49.063,662.224c-34.123,148.971-155.959,258.887-302.605,275.331
		C698.135,992.961,346.738,993.234-3.351,992.961c-350.024,0.273-701.419,0-1048.908-38.511
		c-146.642-16.444-268.478-126.36-302.536-275.331c-48.858-212.154-48.858-443.631-48.858-662.224
		c0-218.386,0.549-449.793,49.27-661.948c34.262-148.904,156.032-258.952,302.536-275.261
		c347.489-38.58,698.884-38.718,1049.043-38.58c349.82-0.138,701.488,0,1048.771,38.58
		c146.641,16.309,268.479,126.357,302.604,275.261C1397.496-432.898,1397.084-201.491,1397.084,16.895 M2332.584,16.895
		c0-1289.838-1045.822-2335.797-2335.935-2335.797c-1289.841,0-2335.8,1045.821-2335.8,2335.797
		c0,1290.045,1045.824,2336.006,2335.8,2336.006C1286.762,2352.9,2332.584,1306.939,2332.584,16.895"/>
</g>
<g id="Layer_2">
</g>
<g id="Layer_3">
	<path fill="#393839" d="M17.001,0C7.613,0,0,7.61,0,17.001C0,26.391,7.61,34,17.001,34C26.389,34,34,26.391,34,17.001
		C34,7.613,26.391,0,17.001,0z M13.71,23.428h-3.132V13.361h3.132V23.428z M12.145,11.985c-1.005,0-1.814-0.813-1.814-1.814
		s0.81-1.814,1.814-1.814c1.001,0,1.813,0.813,1.813,1.814S13.146,11.985,12.145,11.985z M25.43,23.428H22.3v-4.896
		c0-1.167-0.021-2.669-1.625-2.669c-1.629,0-1.877,1.273-1.877,2.585v4.979h-3.125V13.361h2.999v1.376h0.044
		c0.416-0.792,1.438-1.626,2.959-1.626c3.168,0,3.755,2.084,3.755,4.795V23.428z"/>
</g>
</svg>
